<svg id="_x33_0_screw_driver" enable-background="new 0 0 64 64" height="512" viewBox="0 0 64 64" width="512" xmlns="http://www.w3.org/2000/svg"><path d="m38 31c-.551 0-1-.449-1-1h-2c0 1.654 1.346 3 3 3s3-1.346 3-3h-2c0 .551-.449 1-1 1z"/><path d="m63 35v-18h-7v-2h-2.054c-.553-7.805-7.484-14-15.946-14s-15.393 6.195-15.946 14h-2.054v2h-19v18h5v12c0 1.654 1.346 3 3 3h5v2h7v11h42v-10c0-8.822-7.178-16-16-16h-.219l-.5-2zm-26 18v4h-4v2h4v2h-10v-21.841c.658-.094 1.323-.159 2-.159v1c0 4.624 3.507 8.441 8 8.941v2.059h-4v2zm-15.743-14h-5.257v-4h13.719l-.5 2h-.219c-2.592 0-5.174.641-7.468 1.854zm2.835-13h-.592c-.827 0-1.5-.673-1.5-1.5s.673-1.5 1.5-1.5h.5v1.625c0 .465.035.923.092 1.375zm1.908-5h24v3.625c0 3.062-1.552 5.81-4 7.711v-.336c0-3.309-2.691-6-6-6h-1v-2h-2v2h-1c-3.309 0-6 2.691-6 6v.336c-2.448-1.901-4-4.649-4-7.711zm26 3.625v-1.625h.5c.827 0 1.5.673 1.5 1.5s-.673 1.5-1.5 1.5h-.592c.057-.452.092-.91.092-1.375zm-14 10.375c-2.196 0-4.249-.521-6.021-1.415l.021-1.585c0-2.206 1.794-4 4-4h4c2.206 0 4 1.794 4 4v1.596c-1.768.887-3.813 1.404-6 1.404zm0 12c-2.71 0-5.06-1.551-6.223-3.809l1.045 1.045c.67.67 1.549 1.032 2.473 1.032.191 0 .385-.015.579-.047.85-.138 1.592-.564 2.126-1.202.534.638 1.277 1.064 2.126 1.202.194.032.387.047.579.047.924 0 1.802-.361 2.473-1.032l1.045-1.045c-1.163 2.258-3.513 3.809-6.223 3.809zm-6.936-7.35 5.594 2.797c-.223.431-.625.722-1.105.8-.488.08-.967-.076-1.317-.425zm13.872 0-3.172 3.172c-.35.349-.831.505-1.317.425-.48-.078-.882-.369-1.105-.8zm-6.936 1.232-6.835-3.418.459-1.836c1.915.871 4.079 1.372 6.376 1.372 2.304 0 4.474-.503 6.393-1.379l.447 1.841zm23-21.882v4h-2v2h2v4h-6v2h6v2h-12.723c1.468-1.407 2.573-3.109 3.18-5h1.043c1.93 0 3.5-1.57 3.5-3.5s-1.57-3.5-3.5-3.5h3.5v-2zm-10.08-8c.562 1.247.909 2.593 1.025 4h-4.945v-1c0-1.654 1.346-3 3-3zm-1.128-1.979c-2.659.112-4.792 2.293-4.792 4.979v1h-4v-11.692c3.683.751 6.821 2.851 8.792 5.713zm-10.792-5.974v11.953h-2v-11.953c.332-.022.662-.047 1-.047s.668.025 1 .047zm-4 .261v11.692h-4v-1c0-2.686-2.133-4.867-4.792-4.979 1.971-2.862 5.109-4.962 8.792-5.713zm-9.92 7.692h.92c1.654 0 3 1.346 3 3v1h-4.945c.116-1.407.463-2.753 1.025-4zm-3.08 6h32v2h-32zm-19 10h2v-2h-2v-6h17v2h3.5c-1.93 0-3.5 1.57-3.5 3.5s1.57 3.5 3.5 3.5h1.043c.608 1.891 1.712 3.593 3.18 5h-24.723zm6 21c-.551 0-1-.449-1-1v-12h6v4 1 8zm7 2v-9h5v9zm7-9.646c.65-.31 1.321-.548 2-.752v21.398h-2zm30 20.646h-2v-21.41c.692.207 1.357.474 2 .78zm2 0v-5h6v5zm6-8v1h-6v-12.473c3.622 2.533 6 6.728 6 11.473zm-14-14c.681 0 1.345.065 2 .16v21.84h-10v-2h4v-2h-4v-4h4v-2h-4v-2.059c4.493-.5 8-4.317 8-8.941z"/><path d="m5 29h15v2h-15z"/><path d="m7 25h4v2h-4z"/><path d="m14 24c0 .805-.55.988-1.012 1l.012 2c1.206 0 3-.799 3-3s-1.794-3-3-3h-8v2h7.988c.462.012 1.012.195 1.012 1z"/><circle cx="31" cy="24" r="1"/><circle cx="45" cy="24" r="1"/></svg>