<?xml version="1.0" encoding="iso-8859-1"?>
<!-- Generator: Adobe Illustrator 19.0.0, SVG Export Plug-In . SVG Version: 6.00 Build 0)  -->
<svg version="1.1" id="Capa_1" xmlns="http://www.w3.org/2000/svg" xmlns:xlink="http://www.w3.org/1999/xlink" x="0px" y="0px"
	 viewBox="0 0 512 512" style="enable-background:new 0 0 512 512;" xml:space="preserve">
<g>
	<g>
		<path d="M496.513,53.736h-23.146c-8.54,0-15.487,6.947-15.487,15.487v21.582H54.119V69.223c0-8.54-6.947-15.487-15.486-15.487
			H15.486C6.947,53.736,0,60.683,0,69.223v279.091v102.45c0,4.142,3.358,7.5,7.5,7.5h497c4.142,0,7.5-3.358,7.5-7.5V69.223
			C512,60.683,505.052,53.736,496.513,53.736z M472.88,69.223c0-0.269,0.219-0.487,0.487-0.487h23.146
			c0.269,0,0.487,0.218,0.487,0.487v263.074c-0.022-0.005-0.045-0.01-0.067-0.015c-0.038-0.009-0.076-0.016-0.114-0.025
			c-7.889-1.793-15.9-3.026-23.939-3.906V69.223z M54.119,105.805H457.88v22.247H54.119V105.805z M350.661,313.276l-19.715-19.716
			l19.715-19.714l19.715,19.715L350.661,313.276z M351.042,334.869c-0.311,0.056-0.621,0.114-0.932,0.17l0.551-0.551
			L351.042,334.869z M168.734,313.274L149.02,293.56l19.714-19.715l19.715,19.715L168.734,313.274z M170.508,336.261
			c-1.015-0.157-2.049-0.31-3.085-0.463l1.311-1.311L170.508,336.261z M58.056,263.239l19.714-19.714l19.715,19.715L77.77,282.954
			L58.056,263.239z M67.165,293.56L54.12,306.605v-26.091L67.165,293.56z M127.807,232.918l-19.715,19.715l-19.715-19.715
			l19.715-19.715L127.807,232.918z M118.698,202.597l19.715-19.715l19.715,19.715l-19.715,19.715L118.698,202.597z M138.413,243.524
			l19.715,19.715l-19.715,19.715l-19.715-19.715L138.413,243.524z M149.019,232.918l19.715-19.715l19.714,19.714l-19.714,19.716
			L149.019,232.918z M309.733,232.917l-19.715,19.715l-19.714-19.714l19.715-19.715L309.733,232.917z M300.625,202.597
			l19.715-19.715l19.714,19.715l-19.715,19.714L300.625,202.597z M259.697,222.312l-19.715-19.715l19.715-19.715l19.715,19.715
			L259.697,222.312z M249.092,232.919l-19.714,19.715l-19.716-19.716l19.715-19.714L249.092,232.919z M199.055,222.311
			l-19.714-19.714l19.714-19.714l19.715,19.714L199.055,222.311z M199.055,243.524l19.715,19.715l-19.715,19.715l-19.715-19.715
			L199.055,243.524z M229.377,273.845l19.715,19.715l-19.715,19.715l-19.715-19.715L229.377,273.845z M239.983,263.239
			l19.714-19.715l19.715,19.715l-19.715,19.714L239.983,263.239z M290.019,273.846l19.715,19.714l-19.715,19.715l-19.715-19.715
			L290.019,273.846z M300.624,263.239l19.715-19.715l19.715,19.715l-19.715,19.714L300.624,263.239z M330.946,232.918l19.715-19.714
			l19.714,19.714l-19.714,19.715L330.946,232.918z M361.266,202.597l19.715-19.715l19.715,19.715l-19.715,19.715L361.266,202.597z
			 M380.981,243.524l19.715,19.715l-19.715,19.715l-19.714-19.715L380.981,243.524z M391.587,232.918l19.715-19.715l19.715,19.715
			l-19.715,19.715L391.587,232.918z M391.588,172.275l19.715-19.715l19.715,19.715l-19.715,19.715L391.588,172.275z M380.982,161.67
			l-18.618-18.618H399.6L380.982,161.67z M370.376,172.275l-19.715,19.715l-19.715-19.715l19.715-19.715L370.376,172.275z
			 M320.34,161.67l-18.618-18.618h37.236L320.34,161.67z M309.734,172.275l-19.715,19.715l-19.715-19.715l19.715-19.715
			L309.734,172.275z M259.697,161.67l-18.618-18.618h37.236L259.697,161.67z M249.091,172.276l-19.715,19.714l-19.715-19.714
			l19.715-19.715L249.091,172.276z M199.055,161.67l-18.618-18.618h37.236L199.055,161.67z M188.448,172.276l-19.714,19.714
			l-19.715-19.715l19.714-19.714L188.448,172.276z M138.413,161.67l-18.618-18.618h37.236L138.413,161.67z M127.806,172.275
			l-19.714,19.715l-19.715-19.714l19.715-19.715L127.806,172.275z M77.771,161.67l-18.618-18.618h37.236L77.771,161.67z
			 M97.486,202.597l-19.715,19.715l-19.715-19.715l19.715-19.715L97.486,202.597z M108.092,273.845l19.715,19.714l-19.715,19.715
			L88.377,293.56L108.092,273.845z M138.414,304.166l19.715,19.715l-9.577,9.577c-6.959-0.706-14.28-1.278-21.949-1.673
			l-7.904-7.904L138.414,304.166z M199.056,304.167l19.714,19.715l-18.236,18.236c-1.263-0.299-2.545-0.595-3.845-0.889
			l-17.348-17.348L199.056,304.167z M229.376,334.488l19.715,19.715l-2.365,2.366c-7.042-2.859-16.909-6.459-29.379-10.051
			L229.376,334.488z M239.982,323.881l19.715-19.715l19.715,19.715l-19.715,19.715L239.982,323.881z M290.018,334.487l11.65,11.65
			c-10.228,2.826-20.3,5.924-30.154,9.276l-1.211-1.211L290.018,334.487z M300.625,323.881l19.715-19.715l19.715,19.715
			l-16.738,16.738c-1.606,0.376-3.209,0.757-4.808,1.146L300.625,323.881z M380.982,304.166l19.715,19.715l-4.768,4.768
			c-8.736,0.828-17.642,1.898-26.67,3.224l-7.992-7.992L380.982,304.166z M391.588,293.56l19.715-19.715l19.715,19.715
			l-19.715,19.715L391.588,293.56z M441.624,304.166l16.256,16.256v6.705c-10.437-0.592-21.51-0.702-33.056-0.331l-2.915-2.915
			L441.624,304.166z M452.23,293.559l5.65-5.649v11.299L452.23,293.559z M441.624,282.953l-19.715-19.714l19.715-19.715
			l16.256,16.256v6.917L441.624,282.953z M452.23,232.917l5.65-5.649v11.299L452.23,232.917z M441.624,222.311l-19.715-19.715
			l19.715-19.715l16.256,16.257v6.917L441.624,222.311z M452.23,172.276l5.65-5.65v11.3L452.23,172.276z M441.624,161.669
			l-18.618-18.618h34.874v2.362L441.624,161.669z M54.119,159.23l13.045,13.045l-13.045,13.046V159.23z M54.119,219.873
			l13.045,13.045l-13.045,13.045V219.873z M77.771,304.166l19.715,19.715l-7.477,7.477c-11.426,0.314-23.406,1.062-35.889,2.337
			v-5.877h-0.001L77.771,304.166z M15,69.223c0-0.269,0.218-0.487,0.486-0.487h23.146c0.268,0,0.486,0.218,0.486,0.487v266.218
			h0.001c-8.067,1.08-16.112,2.348-24.119,3.805V69.223z M497.001,443.267H146.15v-0.003c6.522-6.235,13.423-12.068,20.588-17.549
			c6.613-5.058,13.457-9.826,20.475-14.306c3.491-2.229,4.514-6.866,2.285-10.357c-2.2-3.446-6.915-4.494-10.365-2.292
			c-7.841,5.007-15.257,10.216-22.245,15.599c-11.222,8.644-21.898,18.119-31.45,28.593c-0.096,0.104-0.196,0.208-0.291,0.312H15
			v-88.742c0.787-0.148,1.571-0.305,2.359-0.448c9.05-1.652,18.338-3.081,27.542-4.237c60.485-7.552,109.438-2.102,141.765,4.569
			c21.795,4.497,38.706,10.035,49.927,14.319c-10.14,4.336-20.145,9.037-29.92,14.145c-3.672,1.917-5.094,6.448-3.177,10.12
			c1.892,3.623,6.495,5.078,10.125,3.181c4.451-2.325,8.95-4.558,13.487-6.708c42.567-20.19,93.197-35.232,144.303-42.743
			c33.92-4.985,65.94-6.352,92.709-4.165c0.208,0.035,0.419,0.066,0.633,0.084c12.073,1.013,22.876,2.731,32.248,5.099V443.267z"/>
	</g>
</g>
<g>
</g>
<g>
</g>
<g>
</g>
<g>
</g>
<g>
</g>
<g>
</g>
<g>
</g>
<g>
</g>
<g>
</g>
<g>
</g>
<g>
</g>
<g>
</g>
<g>
</g>
<g>
</g>
<g>
</g>
</svg>
