<?xml version="1.0"?>
<svg xmlns="http://www.w3.org/2000/svg" viewBox="0 0 64 64" width="512" height="512"><g id="outline"><path d="M59,10H51v4H48v6h3v2H13V20h3V14H13V10H5v4H2v6H5V48H2v6H16V48H13V46H51v2H48v6H62V48H59V20h3V14H59Zm-6,2h4v2H53ZM7,12h4v2H7Zm7,38v2H4V50ZM7,48V20h4V48ZM4,18V16H14v2Zm9,26V32H28V30H13V24H51V34H42v2h9v8Zm47,6v2H50V50H60Zm-7-2V20h4V48Zm7-32v2H50V16Z"/><rect x="15" y="40" width="2" height="2"/><rect x="47" y="40" width="2" height="2"/><rect x="15" y="34" width="16" height="2"/><rect x="25" y="38" width="16" height="2"/><rect x="29" y="26" width="16" height="2"/><rect x="33" y="30" width="8" height="2"/><rect x="23" y="26" width="2" height="2"/></g></svg>
