<svg id="Layer_5" enable-background="new 0 0 64 64" height="512" viewBox="0 0 64 64" width="512" xmlns="http://www.w3.org/2000/svg"><path d="m37 16c0 6.065 4.935 11 11 11s11-4.935 11-11-4.935-11-11-11-11 4.935-11 11zm11-9c4.962 0 9 4.037 9 9s-4.038 9-9 9-9-4.037-9-9 4.038-9 9-9z"/><path d="m48 19c-.551 0-1-.448-1-1h-2c0 1.302.839 2.402 2 2.816v2.184h2v-2h2v-3c0-1.654-1.346-3-3-3-.551 0-1-.448-1-1v-1h1c.551 0 1 .448 1 1h2c0-1.302-.839-2.402-2-2.816v-2.184h-2v2h-2v3c0 1.654 1.346 3 3 3 .551 0 1 .448 1 1v1z"/><circle cx="42" cy="16" r="1"/><circle cx="54" cy="16" r="1"/><path d="m63 1h-35.414l-10.586 10.586v6.05c-5.216 1.692-9 6.592-9 12.364v15.535l.446.297c.093.062 2.147 1.381 7.531 1.929-.06.034-.111.081-.175.11l-7.79 3.408c-4.26 1.863-7.012 6.071-7.012 10.721v1h40v-1c0-1.029-.142-2.035-.398-3h22.398zm-36 3.414v6.586h-6.586zm-17 25.586c0-6.065 4.935-11 11-11s11 4.935 11 11v14.39c-.857.38-3.018 1.13-7 1.452v-.574c3.062-2.109 5-5.62 5-9.514v-4.754h-1.949c-1.096 0-2.171-.377-3.028-1.062l-1.797-1.438c-1.209-.967-2.729-1.5-4.277-1.5-1.472 0-2.931.486-4.108 1.369l-2.841 2.131v5.254c0 3.894 1.938 7.405 5 9.514v.574c-3.988-.323-6.149-1.074-7-1.451zm23 31h-2v-8.846l2 .875zm-24-7.971 2-.875v8.846h-2zm12-8.063c-4.134-1.148-7-4.9-7-9.212v-4.254l2.041-1.531c1.711-1.282 4.266-1.244 5.937.094l1.797 1.438c1.195.956 2.694 1.487 4.225 1.499v2.754c0 4.311-2.866 8.063-7 9.212zm-2.024 1.399c.57.245 1.164.45 1.781.605l.243.061.243-.062c.618-.154 1.212-.359 1.781-.605.052.636.25 1.238.574 1.765-.463.407-1.272.871-2.598.871s-2.135-.464-2.598-.87c.324-.527.522-1.129.574-1.765zm6.024 7.635c1.504 0 2.916-.581 4-1.569v4.569h-16v-4.569c1.084.988 2.496 1.569 4 1.569 1.501 0 2.908-.552 4-1.545 1.092.993 2.499 1.545 4 1.545zm-12 5h16v2h-16zm12-7c-1.03 0-1.982-.41-2.72-1.115 1.303-.242 2.197-.828 2.769-1.366.114.064.227.131.348.184l2.455 1.074c-.743.771-1.765 1.223-2.852 1.223zm-8.396-2.298c.122-.053.234-.12.348-.184.572.538 1.465 1.124 2.769 1.366-.739.706-1.691 1.116-2.721 1.116-1.087 0-2.109-.452-2.851-1.224zm-9.604 4.472v6.826h-3.949c.284-2.749 1.742-5.217 3.949-6.826zm28 6.826v-6.826c2.207 1.609 3.665 4.077 3.949 6.826zm14-8h-2v-14h2zm-4 0h-2v-10h2zm-4 0h-2v-6h2zm20 4h-21.124c-.253-.534-.547-1.046-.876-1.535v-.465h20v-26h-6v4h-4v4h-4v4h-4v4h-4v8.195c-.887-.776-1.896-1.428-3.012-1.917l-7.79-3.408c-.065-.028-.115-.075-.175-.11 5.385-.548 7.439-1.867 7.531-1.929l.446-.296v-15.535c0-7.168-5.832-13-13-13-.682 0-1.346.069-2 .17v-4.17h10v-10h32zm-10-4v-18h2v18zm4 0v-22h2v22z"/><circle cx="58" cy="6" r="1"/><path d="m31 5h2v2h-2z"/><path d="m35 5h2v2h-2z"/><path d="m39 5h2v2h-2z"/></svg>