<?xml version="1.0" encoding="iso-8859-1"?>
<!-- Generator: Adobe Illustrator 19.0.0, SVG Export Plug-In . SVG Version: 6.00 Build 0)  -->
<svg version="1.1" id="Capa_1" xmlns="http://www.w3.org/2000/svg" xmlns:xlink="http://www.w3.org/1999/xlink" x="0px" y="0px"
	 viewBox="0 0 496 496" style="enable-background:new 0 0 496 496;" xml:space="preserve">
<g>
	<g>
		<path d="M400,304h-75.768c7.848-5.04,15.096-11.08,21.368-18.24c3.8-4.344,7.16-8.984,10.288-13.76H360c44.112,0,80-35.888,80-80
			s-35.888-80-80-80h-20.808c-2.024-4.848-3.192-10.024-3.192-15.384V64h8c13.232,0,24-10.768,24-24V24c0-13.232-10.768-24-24-24
			H152c-13.232,0-24,10.768-24,24v16c0,13.232,10.768,24,24,24h8v32.616c0,5.36-1.168,10.536-3.192,15.384H136
			c-44.112,0-80,35.888-80,80s35.888,80,80,80h4.12c3.12,4.776,6.488,9.416,10.28,13.76c6.264,7.16,13.52,13.2,21.368,18.24H96
			c-26.472,0-48,21.528-48,48s21.528,48,48,48c2.728,0,5.392-0.28,8-0.72V496h288v-96.72c2.608,0.44,5.272,0.72,8,0.72
			c26.472,0,48-21.528,48-48S426.472,304,400,304z M353.96,240h-34.6l38.68-55.248c1.248,6.568,1.96,13.264,1.96,20.072
			C360,216.912,357.88,228.776,353.96,240z M248,181.952L288.632,240h-81.264L248,181.952z M192,234.048L151.368,176h81.272
			L192,234.048z M263.368,176h81.272L304,234.048L263.368,176z M360,128c35.288,0,64,28.712,64,64
			c0,33.648-26.12,61.256-59.144,63.752c2.368-5.208,4.384-10.56,6.008-16.04C391.56,238.208,408,221.072,408,200v-16
			c0-22.056-17.944-40-40-40h-8v0.336c-2.12-3.736-4.368-7.416-6.896-10.952L349.256,128H360z M367.512,160H368
			c13.232,0,24,10.768,24,24v16c0,10.952-7.416,20.112-17.464,22.984c0.896-5.992,1.464-12.04,1.464-18.16
			C376,189.296,373.072,174.168,367.512,160z M165.568,129.168c6.824-9.56,10.432-20.816,10.432-32.552V64h112V48H152
			c-4.416,0-8-3.592-8-8V24c0-4.408,3.584-8,8-8h192c4.416,0,8,3.592,8,8v16c0,4.408-3.584,8-8,8h-40v16h16v32.616
			c0,11.736,3.608,22.992,10.432,32.544l9.656,13.52c3.92,5.488,7.208,11.304,10,17.32H145.912c2.792-6.016,6.08-11.824,10-17.32
			L165.568,129.168z M121.464,222.984C111.416,220.112,104,210.952,104,200v-16c0-13.232,10.768-24,24-24h0.488
			c-5.56,14.168-8.488,29.296-8.488,44.824C120,210.944,120.568,216.992,121.464,222.984z M128,144c-22.056,0-40,17.944-40,40v16
			c0,21.072,16.44,38.208,37.136,39.712c1.624,5.488,3.64,10.84,6.008,16.04C98.12,253.256,72,225.648,72,192
			c0-35.288,28.712-64,64-64h10.744l-3.848,5.384c-2.528,3.536-4.776,7.216-6.896,10.952V144H128z M136,204.824
			c0-6.808,0.712-13.504,1.96-20.072L176.632,240h-34.6C138.12,228.776,136,216.912,136,204.824z M162.456,275.224
			c-5.184-5.928-9.568-12.408-13.288-19.224h197.68c-3.72,6.816-8.104,13.296-13.288,19.224c-16,18.288-39.12,28.776-63.416,28.776
			H225.88C201.568,304,178.456,293.512,162.456,275.224z M184,480h-32v-48c0-8.824,7.176-16,16-16c8.824,0,16,7.176,16,16V480z
			 M264,480h-32v-48c0-8.824,7.176-16,16-16c8.824,0,16,7.176,16,16V480z M344,480h-32v-48c0-8.824,7.176-16,16-16
			c8.824,0,16,7.176,16,16V480z M400,384c-17.648,0-32-14.352-32-32v-8h-16v8c0,5.616,1.024,10.984,2.8,16H184v16h180.32
			c3.368,3.744,7.296,6.96,11.68,9.504V480h-16v-48c0-17.648-14.352-32-32-32s-32,14.352-32,32v48h-16v-48c0-17.648-14.352-32-32-32
			s-32,14.352-32,32v48h-16v-48c0-17.648-14.352-32-32-32s-32,14.352-32,32v48h-16v-86.496c4.384-2.544,8.312-5.76,11.68-9.504H168
			v-16h-26.8c1.784-5.016,2.8-10.384,2.8-16v-8h-16v8c0,17.648-14.352,32-32,32s-32-14.352-32-32s14.352-32,32-32h129.864h44.264
			H400c17.648,0,32,14.352,32,32S417.648,384,400,384z"/>
	</g>
</g>
<g>
</g>
<g>
</g>
<g>
</g>
<g>
</g>
<g>
</g>
<g>
</g>
<g>
</g>
<g>
</g>
<g>
</g>
<g>
</g>
<g>
</g>
<g>
</g>
<g>
</g>
<g>
</g>
<g>
</g>
</svg>
